<svg width="192" height="40" viewBox="0 0 192 40" fill="none" xmlns="http://www.w3.org/2000/svg">
<path d="M8.72882 18.517C9.64559 18.3986 10.299 18.2441 10.694 18.0587C11.4011 17.7446 11.7571 17.2503 11.7571 16.5808C11.7571 15.7672 11.484 15.206 10.9427 14.897C10.4014 14.5881 9.60171 14.4336 8.55327 14.4336C7.37318 14.4336 6.5393 14.7374 6.05166 15.345C5.70056 15.793 5.46649 16.4006 5.34945 17.1679H0.604678C0.707084 15.4274 1.17035 14.001 1.98959 12.8836C3.29647 11.1329 5.53963 10.2575 8.7142 10.2575C10.7818 10.2575 12.6202 10.69 14.2246 11.5499C15.8289 12.415 16.6335 14.0422 16.6335 16.4367V25.551C16.6335 26.1843 16.6433 26.9464 16.6677 27.8476C16.7018 28.5273 16.7993 28.9907 16.9603 29.2327C17.1212 29.4748 17.365 29.6756 17.6868 29.8352V30.6025H12.3423C12.1911 30.2008 12.0887 29.8249 12.0302 29.4748C11.9717 29.1195 11.9278 28.723 11.8936 28.275C11.2109 29.0525 10.4258 29.7168 9.53344 30.2626C8.47037 30.9063 7.26589 31.2307 5.92 31.2307C4.20837 31.2307 2.78932 30.7158 1.67749 29.691C0.56079 28.6663 0 27.2091 0 25.3244C0 22.8836 0.897264 21.1123 2.69667 20.0206C3.68171 19.4233 5.13001 19.001 7.04158 18.7436L8.72882 18.517ZM11.7376 20.9423C11.4206 21.1483 11.1037 21.3182 10.7818 21.4418C10.46 21.5705 10.0211 21.689 9.46029 21.7971L8.33871 22.0134C7.29028 22.2091 6.53443 22.4459 6.07604 22.724C5.30069 23.1977 4.91545 23.9341 4.91545 24.9279C4.91545 25.8136 5.14952 26.4573 5.62741 26.8486C6.10042 27.2451 6.67584 27.4408 7.35367 27.4408C8.42649 27.4408 9.4164 27.1112 10.3234 26.4573C11.2304 25.8033 11.6986 24.6035 11.7327 22.8682L11.7376 20.9423ZM44.478 10.8084C45.2826 11.1483 46.0141 11.7456 46.6724 12.5953C47.199 13.2904 47.5599 14.1401 47.7403 15.1493C47.8525 15.8187 47.911 16.7971 47.911 18.0844L47.8769 30.6076H42.8395V17.9557C42.8395 17.2039 42.7225 16.5808 42.4933 16.0968C42.0544 15.1751 41.2498 14.7116 40.0746 14.7116C38.714 14.7116 37.7778 15.309 37.2609 16.4985C36.9975 17.1318 36.8659 17.8888 36.8659 18.7796V30.6076H31.9114V18.7745C31.9114 17.5953 31.7993 16.7405 31.5652 16.2049C31.1507 15.242 30.3412 14.7683 29.1318 14.7683C27.7274 14.7683 26.7814 15.2472 26.2986 16.2049C26.0353 16.7508 25.9036 17.5644 25.9036 18.6457V30.6025H20.915V10.7724H25.694V13.6715C26.3035 12.6416 26.8789 11.9053 27.4202 11.4676C28.376 10.69 29.6146 10.2987 31.1312 10.2987C32.5697 10.2987 33.7303 10.6334 34.6178 11.3028C35.3298 11.9207 35.8711 12.7188 36.2417 13.6921C36.8854 12.5283 37.6851 11.6684 38.6409 11.1226C39.6552 10.5767 40.7817 10.3038 42.0251 10.3038C42.859 10.2987 43.6734 10.4686 44.478 10.8084ZM64.764 11.138C66.0757 11.7611 67.1583 12.7394 68.0166 14.0783C68.787 15.2575 69.2844 16.6272 69.5136 18.1874C69.6453 19.0989 69.6989 20.4171 69.6745 22.1318H55.9718C56.0498 24.1246 56.7032 25.5252 57.9418 26.3234C58.6928 26.8229 59.595 27.07 60.6531 27.07C61.7747 27.07 62.6866 26.7662 63.3839 26.1586C63.7643 25.829 64.1057 25.3759 64.3982 24.7889H69.421C69.2893 25.9681 68.6798 27.1627 67.5972 28.378C65.9099 30.309 63.5497 31.277 60.5166 31.277C58.015 31.277 55.8011 30.4634 53.8895 28.8311C51.978 27.2039 51.0173 24.552 51.0173 20.8754C51.0173 17.4356 51.8804 14.794 53.6116 12.9557C55.3378 11.1174 57.581 10.2008 60.341 10.2008C61.9747 10.206 63.4522 10.5201 64.764 11.138ZM57.4054 15.6231C56.7081 16.38 56.2741 17.4047 56.0937 18.6972H64.5689C64.4811 17.3172 64.0423 16.2719 63.2572 15.5561C62.4721 14.8404 61.5016 14.4851 60.341 14.4851C59.078 14.4902 58.0979 14.8661 57.4054 15.6231ZM82.68 10.2729C82.7434 10.2781 82.8848 10.2884 83.1043 10.2987V15.6231C82.7922 15.587 82.5191 15.5613 82.2753 15.551C82.0314 15.5407 81.8364 15.5304 81.6901 15.5304C79.7103 15.5304 78.3839 16.2101 77.7012 17.5747C77.3208 18.3419 77.1306 19.5211 77.1306 21.1071V30.6025H72.1762V10.7364H76.8722V14.2019C77.6329 12.8785 78.2961 11.9722 78.8569 11.4882C79.7785 10.6746 80.9733 10.2678 82.4459 10.2678C82.5386 10.2626 82.6166 10.2626 82.68 10.2729ZM86.4544 10.3553H91.443V30.6025H86.4544V10.3553ZM106.789 17.863C106.696 17.1215 106.462 16.4521 106.077 15.8599C105.526 15.0566 104.663 14.6601 103.498 14.6601C101.835 14.6601 100.698 15.5304 100.089 17.2657C99.7671 18.1874 99.6061 19.413 99.6061 20.9372C99.6061 22.3893 99.7671 23.5582 100.089 24.4439C100.679 26.0968 101.786 26.9207 103.41 26.9207C104.565 26.9207 105.38 26.5963 105.867 25.9372C106.35 25.2832 106.648 24.4336 106.75 23.3831H111.773C111.656 24.964 111.115 26.4573 110.149 27.8682C108.603 30.139 106.321 31.277 103.288 31.277C100.26 31.277 98.031 30.3296 96.6022 28.4346C95.1734 26.5396 94.4615 24.0783 94.4615 21.0608C94.4615 17.6519 95.2515 15 96.8266 13.105C98.4016 11.2101 100.581 10.2626 103.356 10.2626C105.716 10.2626 107.647 10.8187 109.154 11.9413C110.656 13.0587 111.549 15.036 111.822 17.863H106.789ZM122.716 18.517C123.632 18.3986 124.286 18.2441 124.681 18.0587C125.388 17.7446 125.744 17.2503 125.744 16.5808C125.744 15.7672 125.471 15.206 124.929 14.897C124.388 14.5881 123.588 14.4336 122.54 14.4336C121.36 14.4336 120.526 14.7374 120.038 15.345C119.687 15.793 119.453 16.4006 119.336 17.1679H114.591C114.694 15.4274 115.157 14.001 115.981 12.8836C117.288 11.1329 119.531 10.2575 122.706 10.2575C124.773 10.2575 126.612 10.69 128.216 11.5499C129.825 12.415 130.63 14.0422 130.63 16.4367V25.551C130.63 26.1843 130.64 26.9464 130.664 27.8476C130.698 28.5273 130.796 28.9907 130.957 29.2327C131.118 29.4748 131.361 29.6756 131.683 29.8352V30.6025H126.329C126.178 30.2008 126.075 29.8249 126.017 29.4748C125.958 29.1195 125.915 28.723 125.88 28.275C125.198 29.0525 124.413 29.7168 123.52 30.2626C122.457 30.9063 121.253 31.2307 119.907 31.2307C118.195 31.2307 116.781 30.7158 115.664 29.691C114.548 28.6663 113.987 27.2091 113.987 25.3244C113.987 22.8836 114.884 21.1123 116.683 20.0206C117.668 19.4233 119.117 19.001 121.033 18.7436L122.716 18.517ZM125.719 20.9423C125.407 21.1483 125.086 21.3182 124.764 21.4418C124.442 21.5705 124.003 21.689 123.442 21.7971L122.321 22.0134C121.272 22.2091 120.516 22.4459 120.058 22.724C119.283 23.1977 118.897 23.9341 118.897 24.9279C118.897 25.8136 119.131 26.4573 119.609 26.8486C120.082 27.2451 120.658 27.4408 121.336 27.4408C122.413 27.4408 123.398 27.1112 124.305 26.4573C125.212 25.8033 125.68 24.6035 125.715 22.8682L125.719 20.9423ZM150.16 11.8744C151.394 12.9506 152.008 14.7322 152.008 17.2245V30.6025H146.966V18.517C146.966 17.4717 146.834 16.6684 146.571 16.1123C146.093 15.0927 145.176 14.5829 143.831 14.5829C142.173 14.5829 141.036 15.3296 140.422 16.8229C140.1 17.6159 139.939 18.62 139.939 19.8507V30.6076H135.019V10.7724H139.783V13.6715C140.412 12.6519 141.012 11.9156 141.573 11.4676C142.582 10.6643 143.86 10.2626 145.406 10.2626C147.346 10.2626 148.931 10.7981 150.16 11.8744ZM163.731 18.517C164.648 18.3986 165.302 18.2441 165.697 18.0587C166.404 17.7446 166.755 17.2503 166.755 16.5808C166.755 15.7672 166.482 15.206 165.94 14.897C165.399 14.5881 164.599 14.4336 163.551 14.4336C162.371 14.4336 161.537 14.7374 161.049 15.345C160.698 15.793 160.464 16.4006 160.352 17.1679H155.607C155.71 15.4274 156.173 14.001 156.992 12.8836C158.299 11.1329 160.542 10.2575 163.717 10.2575C165.784 10.2575 167.623 10.69 169.232 11.5499C170.836 12.415 171.641 14.0422 171.641 16.4367V25.551C171.641 26.1843 171.651 26.9464 171.675 27.8476C171.709 28.5273 171.807 28.9907 171.968 29.2327C172.129 29.4748 172.372 29.6756 172.694 29.8352V30.6025H167.345C167.194 30.2008 167.091 29.8249 167.033 29.4748C166.974 29.1195 166.93 28.723 166.896 28.275C166.213 29.0525 165.428 29.7168 164.536 30.2626C163.473 30.9063 162.268 31.2307 160.922 31.2307C159.211 31.2307 157.797 30.7158 156.68 29.691C155.563 28.6663 155.002 27.2091 155.002 25.3244C155.002 22.8836 155.9 21.1123 157.699 20.0206C158.684 19.4233 160.132 19.001 162.049 18.7436L163.731 18.517ZM166.74 20.9423C166.423 21.1483 166.106 21.3182 165.789 21.4418C165.467 21.5705 165.028 21.689 164.468 21.7971L163.346 22.0134C162.298 22.2091 161.542 22.4459 161.083 22.724C160.308 23.1977 159.923 23.9341 159.923 24.9279C159.923 25.8136 160.162 26.4573 160.635 26.8486C161.108 27.2451 161.683 27.4408 162.361 27.4408C163.434 27.4408 164.429 27.1112 165.331 26.4573C166.238 25.8033 166.706 24.6035 166.74 22.8682V20.9423ZM179.785 24.2585C179.887 25.1802 180.116 25.8393 180.462 26.2255C181.077 26.9155 182.208 27.2657 183.861 27.2657C184.832 27.2657 185.602 27.1164 186.178 26.8126C186.748 26.5088 187.036 26.0556 187.036 25.4428C187.036 24.861 186.807 24.4181 186.343 24.1143C185.885 23.8105 184.168 23.2904 181.199 22.5489C179.058 21.9876 177.556 21.2925 176.678 20.4531C175.805 19.6241 175.366 18.4346 175.366 16.8795C175.366 15.0463 176.049 13.4706 177.415 12.1473C178.78 10.829 180.706 10.1699 183.183 10.1699C185.534 10.1699 187.455 10.6643 188.933 11.6529C190.415 12.6416 191.264 14.3563 191.483 16.7817H186.563C186.495 16.1123 186.314 15.587 186.026 15.1957C185.485 14.4902 184.559 14.1349 183.257 14.1349C182.184 14.1349 181.418 14.31 180.965 14.6653C180.511 15.0154 180.282 15.4325 180.282 15.9063C180.282 16.5036 180.526 16.9361 181.009 17.1988C181.491 17.4768 183.203 17.9557 186.143 18.6406C188.104 19.1246 189.572 19.861 190.552 20.8445C191.517 21.8383 192 23.0844 192 24.5829C192 26.5499 191.303 28.1565 189.918 29.4027C188.528 30.6488 186.382 31.2719 183.476 31.2719C180.511 31.2719 178.326 30.6128 176.912 29.2945C175.498 27.9763 174.796 26.2976 174.796 24.2533H179.785V24.2585ZM0.034135 0H191.678V5.10814H0.034135V0ZM0.034135 34.8919H191.678V40H0.034135V34.8919Z" fill="white"/>
</svg>
